<?xml version="1.0" encoding="UTF-8"?>
<svg id="Layer_1" xmlns="http://www.w3.org/2000/svg" version="1.1" viewBox="0 0 110 135">
  <!-- Generator: Adobe Illustrator 29.6.1, SVG Export Plug-In . SVG Version: 2.1.1 Build 9)  -->
  <defs>
    <style>
      .st0 {
        fill: #2dabe0;
      }
    </style>
  </defs>
  <path class="st0" d="M89.74,96H20.26c-.69,0-1.26-.6-1.26-1.33v-7.83c0-.74.56-1.33,1.26-1.33h69.48c.33,0,.65.14.89.39.24.25.37.59.37.94v7.83c0,.35-.13.69-.37.94s-.56.39-.89.39h0ZM21.51,93.33h66.97v-5.17H21.51v5.17Z"/>
  <path class="st0" d="M85.54,88.17H24.46c-.69,0-1.26-.6-1.26-1.33v-40.62c0-.73.56-1.33,1.26-1.33h61.08c.34,0,.65.14.89.39.24.25.37.59.37.94v40.62c0,.35-.13.69-.37.94s-.55.39-.89.39h0ZM25.71,85.5h58.57v-37.95H25.71v37.95Z"/>
  <path class="st0" d="M39.52,39.72h-14.07c-.69,0-1.26-.6-1.26-1.33v-5.05c0-.74.56-1.33,1.26-1.33h14.07c.33,0,.65.14.89.39.24.25.37.59.37.94v5.05c0,.35-.14.69-.37.94-.24.25-.55.39-.89.39h0ZM26.7,37.05h11.56v-2.39h-11.56v2.39Z"/>
  <path class="st0" d="M84.55,39.72h-14.07c-.69,0-1.26-.6-1.26-1.33v-5.05c0-.74.57-1.33,1.26-1.33h14.07c.33,0,.65.14.89.39s.37.59.37.94v5.05c0,.35-.13.69-.37.94-.24.25-.56.39-.89.39h0ZM71.74,37.05h11.56v-2.39h-11.56v2.39Z"/>
  <path class="st0" d="M50.12,81.14c-.4,0-.77-.2-1-.53-.24-.34-.31-.77-.2-1.17l2.7-9.95-5.32-1.63c-.43-.13-.76-.5-.87-.96-.11-.46.03-.95.35-1.28l13.24-13.33c.41-.41,1.03-.48,1.52-.17.48.31.71.93.56,1.5l-2.7,9.95,5.32,1.62h0c.43.14.77.5.87.97.11.46-.03.95-.36,1.28l-13.24,13.33h0c-.23.24-.54.37-.86.37h0ZM49.1,65.94l4.41,1.35c.32.1.59.33.75.64s.2.67.11,1.01l-1.77,6.53,8.29-8.35-4.41-1.35h0c-.32-.1-.59-.33-.75-.64s-.2-.67-.11-1.01l1.77-6.53-8.29,8.35Z"/>
  <path class="st0" d="M35.33,70.94c-.69,0-1.26-.6-1.26-1.33v-6.17c0-.74.56-1.33,1.26-1.33s1.26.6,1.26,1.33v6.17c0,.35-.14.69-.37.94-.24.25-.55.39-.89.39h0Z"/>
  <path class="st0" d="M38.24,67.86h-5.82c-.69,0-1.26-.6-1.26-1.33s.57-1.33,1.26-1.33h5.82c.69,0,1.26.6,1.26,1.33s-.56,1.33-1.26,1.33Z"/>
  <path class="st0" d="M77.58,67.86h-5.82c-.69,0-1.26-.6-1.26-1.33s.56-1.33,1.26-1.33h5.82c.69,0,1.26.6,1.26,1.33s-.57,1.33-1.26,1.33Z"/>
  <path class="st0" d="M89.74,47.55H20.26c-.69,0-1.26-.6-1.26-1.33v-7.83c0-.73.56-1.33,1.26-1.33h69.48c.33,0,.65.14.89.39s.37.59.37.94v7.83c0,.36-.13.69-.37.94s-.56.39-.89.39h0ZM21.51,44.88h66.97v-5.17H21.51v5.17Z"/>
  <path class="st0" d="M35.17,34.67h-5.03c-.69,0-1.26-.6-1.26-1.33v-8c0-.74.57-1.33,1.26-1.33h5.03c.34,0,.65.14.89.39.24.25.37.59.37.94v8c0,.35-.13.69-.37.94-.24.25-.55.39-.89.39h0ZM31.4,32h2.52v-5.33h-2.52v5.33Z"/>
  <path class="st0" d="M79.86,34.67h-5.03c-.69,0-1.26-.6-1.26-1.33v-8c0-.74.56-1.33,1.26-1.33h5.03c.33,0,.65.14.89.39.24.25.37.59.37.94v8c0,.35-.14.69-.37.94s-.55.39-.89.39h0ZM76.08,32h2.52v-5.33h-2.52v5.33Z"/>
</svg>