<?xml version="1.0" encoding="UTF-8"?>
<svg id="Layer_1" xmlns="http://www.w3.org/2000/svg" version="1.1" viewBox="0 0 110 135">
  <!-- Generator: Adobe Illustrator 29.6.1, SVG Export Plug-In . SVG Version: 2.1.1 Build 9)  -->
  <defs>
    <style>
      .st0 {
        fill: #2dabe0;
      }
    </style>
  </defs>
  <path class="st0" d="M30.73,69.83c-3.08,0-5.59,2.51-5.59,5.59s2.51,5.59,5.59,5.59,5.59-2.51,5.59-5.59-2.51-5.59-5.59-5.59ZM30.73,79.48c-2.24,0-4.06-1.82-4.06-4.06s1.82-4.06,4.06-4.06,4.06,1.82,4.06,4.06-1.82,4.06-4.06,4.06Z"/>
  <path class="st0" d="M92.38,56.13h-6.19l-9.07-15.21c-2.05-3.44-5.82-5.58-9.82-5.58h-21.4c-4,0-7.76,2.14-9.83,5.58l-9.06,15.21h-3.23c-3.46,0-6.81,1.43-9.19,3.93-1.97,2.05-3.19,4.73-3.45,7.5-.05.36-.07.77-.07,1.28v4.42c0,2.77,2.26,5.03,5.03,5.03h5.43c1.23,3.92,4.89,6.77,9.21,6.77s7.99-2.85,9.21-6.78h7.99v6.3c0,.42.34.77.77.77h4.52v.73c0,2.53,1.59,3.71,1.64,3.74l2.33,1.77v2.54c0,.2.08.4.22.54s.34.22.54.22h10.69c.42,0,.77-.35.77-.77v-2.81l1.9-1.9c.94-.94,1-2.9,1.01-3.13v-.94h5.22c.25,0,.46-.13.6-.31,4.01-.25,7.42-2.93,8.6-6.75h5.63c2.77,0,5.03-2.26,5.03-5.03v-12.11c0-.29-.02-.55-.06-.75-.35-2.44-2.49-4.28-4.97-4.28v.02ZM95.87,61.29v2.89h-1.57c-.48,0-.88-.41-.88-.88v-1.11c0-.5.4-.9.88-.9h1.57ZM15.48,61.37h5.11c-.08.76-.38,2-1.38,3.1-1.33,1.45-3.49,2.26-6.43,2.41.36-2.04,1.3-3.95,2.71-5.51h-.01ZM30.73,83.54c-4.47,0-8.12-3.64-8.12-8.12s3.64-8.11,8.12-8.11,8.11,3.64,8.11,8.11-3.64,8.12-8.11,8.12ZM70.23,88.35l-2.13,2.13c-.14.14-.22.34-.22.54v2.36h-9.16v-2.16c0-.24-.11-.47-.3-.61l-2.64-2s-1.03-.8-1.03-2.52v-.73h1.59v.19c0,.42.34.77.77.77s.77-.34.77-.77v-13.29c0-.4.49-.76,1.04-.76s1.04.35,1.04.76v6.9c0,.42.34.77.77.77s.77-.34.77-.77v-7.82c0-.4.49-.76,1.04-.76s1.04.35,1.04.76c0,.04.02.07.02.11,0,.07-.02.13-.02.19v7.82c0,.42.34.77.77.77s.77-.34.77-.77v-7.82c0-.4.49-.76,1.04-.76s1.04.35,1.04.76v7.82c0,.42.34.77.77.77s.77-.34.77-.77v-6.85c0-.4.49-.76,1.04-.76s1.04.35,1.04.76v13.65c-.01.64-.2,1.69-.56,2.06l-.02.03ZM69.75,70.33c-.48,0-.92.12-1.3.33-.42-.76-1.29-1.3-2.31-1.3-.62,0-1.19.21-1.64.54-.47-.51-1.18-.84-1.98-.84-1,0-1.86.51-2.28,1.26-.39-.21-.84-.34-1.33-.34-1.42,0-2.57,1.03-2.57,2.29v11.56h-6.88v-18.92h27.31v18.94h-4.45v-11.2c0-1.26-1.15-2.29-2.57-2.29v-.02ZM78.31,71.44c1.87.36,3.29,2,3.29,3.97s-1.42,3.62-3.29,3.99v-7.96h0ZM78.31,83.5v-2.55c2.72-.38,4.82-2.71,4.82-5.54s-2.1-5.15-4.82-5.52v-2.55c4.12.39,7.35,3.86,7.35,8.07,0,.68-.08,1.32-.24,1.93-.82,3.39-3.68,5.83-7.11,6.15h0ZM92.38,76.76h-5.29c.06-.44.1-.89.1-1.35,0-5.06-3.92-9.21-8.88-9.6v-1.67c0-.42-.34-.77-.77-.77h-28.84c-.42,0-.77.34-.77.77v12.62h-7.66c.06-.44.1-.88.1-1.34,0-5.32-4.33-9.65-9.65-9.65s-9.65,4.33-9.65,9.65c0,.46.04.9.1,1.34h-5.1c-1.93,0-3.5-1.57-3.5-3.5v-4.42c0-.16,0-.29.01-.43,3.5-.14,6.12-1.12,7.76-2.94,2.01-2.22,1.79-4.84,1.78-4.95-.04-.39-.37-.69-.76-.69h-4.2c1.9-1.39,4.21-2.17,6.59-2.17h3.67c.27,0,.52-.14.66-.37l9.28-15.58c1.79-2.98,5.05-4.84,8.51-4.84h21.4c3.46,0,6.72,1.85,8.5,4.83l9.29,15.59c.14.23.39.37.66.37h6.63c1.4,0,2.63.85,3.18,2.09h-1.26c-1.33,0-2.42,1.09-2.42,2.43v1.11c0,1.33,1.08,2.42,2.42,2.42h1.57v7.55c0,1.93-1.57,3.5-3.5,3.5h.03Z"/>
  <path class="st0" d="M55.12,39.4h-9.24c-2.58,0-5.01,1.38-6.34,3.6l-8.05,13.51c-.14.24-.14.53,0,.77.14.24.39.39.67.39h22.96c.42,0,.77-.34.77-.77v-16.73c0-.42-.34-.77-.77-.77h0ZM54.36,56.14h-20.85l7.36-12.35c1.05-1.76,2.97-2.85,5.02-2.85h8.47v15.2h0Z"/>
  <path class="st0" d="M81.69,57.28c.14-.24.13-.53,0-.77l-8.05-13.51c-1.32-2.22-3.75-3.6-6.34-3.6h-8.35c-.42,0-.77.34-.77.77v16.73c0,.42.34.77.77.77h22.07c.28,0,.53-.15.67-.39h0ZM59.71,56.14v-15.2h7.58c2.05,0,3.97,1.09,5.02,2.85l7.36,12.35h-19.96,0Z"/>
  <path class="st0" d="M81.12,58.52h-3.18c-1.11,0-2.01.9-2.01,2.01s.9,2.01,2.01,2.01h3.18c1.11,0,2.01-.9,2.01-2.01s-.9-2.01-2.01-2.01ZM81.12,61.01h-3.18c-.26,0-.48-.21-.48-.48s.22-.47.48-.47h3.18c.26,0,.47.22.47.47s-.22.48-.47.48Z"/>
  <path class="st0" d="M53.88,58.52h-3.18c-1.11,0-2.01.9-2.01,2.01s.9,2.01,2.01,2.01h3.18c1.11,0,2.01-.9,2.01-2.01s-.9-2.01-2.01-2.01ZM53.88,61.01h-3.18c-.26,0-.47-.22-.47-.48s.22-.47.47-.47h3.18c.26,0,.47.22.47.47s-.22.48-.47.48Z"/>
  <path class="st0" d="M98.17,37.41c-1.84,0-3.34-1.5-3.34-3.34,0-.42-.34-.77-.77-.77s-.77.34-.77.77c0,1.84-1.5,3.34-3.34,3.34-.42,0-.77.34-.77.77s.34.77.77.77c1.84,0,3.34,1.5,3.34,3.34,0,.42.34.77.77.77s.77-.34.77-.77c0-1.84,1.5-3.34,3.34-3.34.42,0,.77-.34.77-.77s-.34-.77-.77-.77ZM94.07,39.66c-.38-.6-.89-1.1-1.49-1.49.6-.38,1.1-.89,1.49-1.49.38.6.89,1.1,1.49,1.49-.6.38-1.1.89-1.49,1.49Z"/>
  <path class="st0" d="M80.72,25.85c0-.42-.34-.77-.77-.77s-.77.34-.77.77c0,1.84-1.5,3.34-3.34,3.34-.42,0-.77.34-.77.77s.34.77.77.77c1.84,0,3.34,1.5,3.34,3.34,0,.42.34.77.77.77s.77-.34.77-.77c0-1.84,1.5-3.34,3.34-3.34.42,0,.77-.34.77-.77s-.34-.77-.77-.77c-1.84,0-3.34-1.5-3.34-3.34ZM79.95,31.45c-.38-.6-.89-1.1-1.49-1.49.6-.38,1.1-.89,1.49-1.49.38.6.89,1.1,1.49,1.49-.6.38-1.1.89-1.49,1.49Z"/>
  <path class="st0" d="M86.43,47.77c-.42,0-.77.34-.77.77s.34.77.77.77c1.17,0,2.13.96,2.13,2.13,0,.42.34.77.77.77s.77-.34.77-.77c0-1.17.96-2.13,2.13-2.13.42,0,.77-.34.77-.77s-.34-.77-.77-.77c-1.17,0-2.13-.96-2.13-2.13,0-.42-.34-.77-.77-.77s-.77.34-.77.77c0,1.17-.96,2.13-2.13,2.13ZM89.32,47.88c.19.24.41.46.65.65-.24.19-.46.41-.65.65-.19-.24-.41-.46-.65-.65.24-.19.46-.41.65-.65Z"/>
</svg>