<?xml version="1.0" encoding="UTF-8"?>
<svg id="Layer_1" xmlns="http://www.w3.org/2000/svg" version="1.1" viewBox="0 0 110 135">
  <!-- Generator: Adobe Illustrator 29.6.1, SVG Export Plug-In . SVG Version: 2.1.1 Build 9)  -->
  <defs>
    <style>
      .st0 {
        fill: #2dabe0;
      }
    </style>
  </defs>
  <path class="st0" d="M53.32,49.38h3.37c0-6.92,5.63-12.55,12.55-12.55v-3.37c-6.92,0-12.55-5.63-12.55-12.55h-3.37c0,6.92-5.63,12.55-12.55,12.55v3.37c6.92,0,12.55,5.63,12.55,12.55ZM55,27.9c1.55,3.15,4.1,5.7,7.25,7.25-3.15,1.55-5.7,4.1-7.25,7.25-1.55-3.15-4.1-5.7-7.25-7.25,3.15-1.55,5.7-4.1,7.25-7.25Z"/>
  <path class="st0" d="M69.8,51.12c-2.75,0-4.98-2.23-4.98-4.98,0,2.75-2.23,4.98-4.99,4.98,2.76,0,4.99,2.23,4.99,4.98,0-2.75,2.23-4.98,4.98-4.98Z"/>
  <path class="st0" d="M88.23,58.96h2.16c3.46,0,6.27-2.81,6.27-6.27s-2.81-6.27-6.27-6.27h-1.23c-.9,0-1.77.19-2.59.56l-1.86.84-.91-3.44c-1.32-4.96-5.2-8.92-10.13-10.34l-.93,3.23c3.8,1.1,6.79,4.15,7.81,7.98l3.32,12.47c.32,1.2.91,2.35,1.7,3.31l6.23,7.57c.97,1.18,1.5,2.66,1.5,4.19v14.63h-27.69l-1.53-4.81c-.73-2.29-2.83-3.82-5.23-3.82h-9.66c-2.4,0-4.5,1.54-5.23,3.82l-1.53,4.81h-25.73s0-14.63,0-14.63c0-1.52.54-3.01,1.5-4.19l6.23-7.57c.79-.96,1.38-2.11,1.7-3.31l3.32-12.47c1.02-3.82,4-6.87,7.79-7.97l-.94-3.23c-4.92,1.43-8.79,5.39-10.11,10.34l-.91,3.44-1.86-.84c-.82-.37-1.69-.56-2.59-.56h-1.23c-3.46,0-6.27,2.81-6.27,6.27s2.81,6.27,6.27,6.27h2.16l-6.16,7.49c-1.46,1.78-2.27,4.03-2.27,6.33v22.37c0,3.1,2.52,5.62,5.62,5.62h8.18c3.1,0,5.62-2.52,5.62-5.62v-4.37h44.48v4.37c0,3.1,2.52,5.62,5.62,5.62h8.18c3.1,0,5.62-2.52,5.62-5.62v-22.37c0-2.3-.8-4.55-2.27-6.33l-6.16-7.49h0ZM87.96,50.04c.38-.17.79-.26,1.2-.26h1.23c1.6,0,2.9,1.3,2.9,2.9s-1.3,2.91-2.9,2.91h-3.61l-1.19-4.48,2.37-1.07ZM16.7,52.69c0-1.6,1.3-2.9,2.9-2.9h1.23c.41,0,.82.09,1.2.26l2.37,1.07-1.19,4.48h-3.61c-1.6,0-2.9-1.3-2.9-2.91h0ZM29.38,95.15c0,1.24-1.01,2.26-2.26,2.26h-8.18c-1.24,0-2.26-1.01-2.26-2.26v-4.37h12.69s0,4.36,0,4.36h0ZM47.16,83.62c.28-.88,1.09-1.48,2.02-1.48h9.66c.93,0,1.74.59,2.02,1.48l1.16,3.63h-16.01l1.16-3.63ZM93.29,95.15c0,1.24-1.01,2.26-2.26,2.26h-8.18c-1.24,0-2.26-1.01-2.26-2.26v-4.37h12.68v4.37h0Z"/>
  <path class="st0" d="M76.49,47.48c-.89-3.84-4.27-6.51-8.2-6.51v3.37c2.36,0,4.39,1.61,4.93,3.91l2.25,9.66h-40.93l2.25-9.66c.54-2.3,2.56-3.91,4.93-3.91v-3.37c-3.94,0-7.31,2.68-8.2,6.51l-2.68,11.53-2.61,5.22,3.01,1.51,2.23-4.47h43.09l2.23,4.47,3.01-1.51-2.61-5.22-2.68-11.53h-.01Z"/>
  <path class="st0" d="M26.67,70.19h9.68c1.07,0,1.93,1.07,1.93,1.93v4.29c0,1.07-.86,1.93-1.93,1.93h-9.68c-1.07,0-1.93-1.07-1.93-1.93v-4.29c0-1.07.86-1.93,1.93-1.93Z"/>
  <path class="st0" d="M72.57,70.19h9.68c1.07,0,1.93,1.07,1.93,1.93v4.29c0,1.07-.86,1.93-1.93,1.93h-9.68c-1.07,0-1.93-1.07-1.93-1.93v-4.29c0-1.07.86-1.93,1.93-1.93Z"/>
  <path class="st0" d="M49.32,69.82l-4.91-4.91-2.38,2.38,5.89,5.89h13.28l4.92-6.02-2.61-2.13-3.91,4.78h-10.28Z"/>
</svg>