<?xml version="1.0" encoding="UTF-8"?>
<svg id="Layer_1" xmlns="http://www.w3.org/2000/svg" version="1.1" viewBox="0 0 110 135">
  <!-- Generator: Adobe Illustrator 29.6.1, SVG Export Plug-In . SVG Version: 2.1.1 Build 9)  -->
  <defs>
    <style>
      .st0 {
        fill: #2dabe0;
      }
    </style>
  </defs>
  <path class="st0" d="M76.86,61.4c-4.04-25.57-30.43-43.76-31.65-44.59-.45-.3-1.03-.3-1.47,0-1.32.89-32.16,22.16-32.16,51.09,0,15.24,14.75,27.63,32.9,27.63,4.95,0,9.64-.92,13.85-2.59-1.29-2.82-2.01-5.96-2.01-9.25,0-11.71,9.05-21.35,20.54-22.29h0ZM27.18,44.93c-5.12,7.82-7.71,15.54-7.71,22.96,0,.72-.59,1.32-1.32,1.32s-1.32-.59-1.32-1.32c0-7.93,2.74-16.15,8.13-24.41.39-.61,1.22-.78,1.83-.38.61.41.78,1.21.38,1.83h0ZM35.42,34.59c-2.04,2.16-3.89,4.33-5.5,6.46-.26.34-.66.53-1.05.53-.28,0-.55-.09-.79-.26-.58-.45-.7-1.26-.26-1.84,1.67-2.21,3.59-4.46,5.68-6.7.5-.53,1.33-.55,1.87-.05.53.5.55,1.33.05,1.87h0Z"/>
  <path class="st0" d="M78.68,63.95c-10.88,0-19.74,8.86-19.74,19.74s8.85,19.74,19.74,19.74,19.74-8.86,19.74-19.74-8.85-19.74-19.74-19.74ZM86.46,98.9l-1.26-1.26c-.52-.52-1.35-.52-1.86,0-.52.52-.52,1.35,0,1.86l.5.5c-1.62.52-3.35.79-5.14.79s-3.6-.3-5.26-.84v-1.79c0-.73-.59-1.32-1.32-1.32s-1.32.59-1.32,1.32v.68c-3.14-1.64-5.7-4.23-7.32-7.39l1.26-1.26c.52-.52.52-1.35,0-1.86-.52-.52-1.35-.52-1.86,0l-.5.5c-.52-1.62-.79-3.35-.79-5.15s.3-3.6.84-5.26h1.79c.73,0,1.32-.59,1.32-1.32s-.59-1.32-1.32-1.32h-.68c1.64-3.14,4.23-5.7,7.39-7.32l1.26,1.26c.26.26.59.39.93.39s.67-.13.93-.39c.52-.52.52-1.35,0-1.86l-.5-.5c1.62-.52,3.35-.79,5.14-.79s3.6.3,5.26.84v1.79c0,.73.59,1.32,1.32,1.32s1.32-.59,1.32-1.32v-.68c3.14,1.64,5.7,4.23,7.32,7.39l-1.26,1.26c-.52.52-.52,1.35,0,1.86.26.26.59.39.93.39s.67-.13.93-.39l.5-.5c.52,1.62.79,3.35.79,5.15s-.3,3.6-.84,5.26h-1.79c-.73,0-1.32.59-1.32,1.32s.59,1.32,1.32,1.32h.68c-1.64,3.14-4.23,5.7-7.39,7.32h0Z"/>
  <path class="st0" d="M78.68,75.79c-4.35,0-7.89,3.54-7.89,7.89s3.54,7.89,7.89,7.89,7.89-3.54,7.89-7.89-3.54-7.89-7.89-7.89ZM78.68,88.95c-2.9,0-5.26-2.36-5.26-5.26s2.36-5.26,5.26-5.26,5.26,2.36,5.26,5.26-2.36,5.26-5.26,5.26Z"/>
</svg>