<?xml version="1.0" encoding="UTF-8"?>
<svg id="Layer_1" xmlns="http://www.w3.org/2000/svg" version="1.1" viewBox="0 0 110 135">
  <!-- Generator: Adobe Illustrator 29.6.1, SVG Export Plug-In . SVG Version: 2.1.1 Build 9)  -->
  <defs>
    <style>
      .st0 {
        fill: #2dabe0;
      }
    </style>
  </defs>
  <path class="st0" d="M90.65,71.26c-4.5-4.5-11.14-6.08-17.17-4.16l-8.86-8.86,16.69-16.69,5.62-2.72s.03-.02.05-.03c.06-.03.11-.07.17-.11.04-.03.08-.05.12-.09.05-.04.09-.09.13-.14.04-.04.07-.07.1-.12,0-.01.02-.02.02-.03l7.82-11.56c.41-.6.33-1.41-.18-1.92l-4.95-4.95c-.51-.52-1.32-.59-1.92-.18l-11.56,7.82s-.02.02-.03.02c-.04.03-.07.06-.11.09-.05.04-.1.09-.14.14-.03.04-.06.08-.09.12-.04.05-.08.11-.11.17,0,.02-.02.03-.03.05l-2.71,5.62-16.69,16.7-8.87-8.87c1.92-6.03.34-12.67-4.16-17.17-4.61-4.61-11.31-6.16-17.48-4.05-.5.17-.87.58-.98,1.09-.12.51.04,1.04.4,1.41l8.36,8.36-1.58,5.92-5.92,1.58-8.36-8.36c-.37-.37-.91-.52-1.41-.4-.51.12-.92.49-1.09.98-2.11,6.18-.55,12.88,4.05,17.48,4.5,4.5,11.15,6.09,17.17,4.16l4.59,4.59-2.02,2.02c-.68.68-1.05,1.58-1.04,2.54,0,.95.38,1.85,1.06,2.53.5.5.51,1.3.02,1.79-.49.48-1.29.48-1.79-.02l-1.47-1.47c-.29-.29-.67-.44-1.07-.44s-.79.16-1.07.44l-16.44,16.44c-2.18,2.18-3.36,5.08-3.33,8.18.03,3.14,1.29,6.07,3.57,8.26,2.2,2.12,5.07,3.17,7.96,3.17,3.04,0,6.09-1.16,8.41-3.48l16.21-16.21c.59-.59.59-1.55,0-2.14l-1.48-1.48c-.24-.24-.38-.57-.38-.91,0-.34.12-.64.36-.88.23-.23.54-.36.87-.36h0c.34,0,.66.14.91.38,1.4,1.4,3.68,1.41,5.07.02l2.02-2.02,4.58,4.58c-1.92,6.03-.34,12.67,4.16,17.17,3.25,3.25,7.54,4.98,11.94,4.98,1.85,0,3.71-.3,5.54-.93.5-.17.87-.58.98-1.09.12-.51-.04-1.04-.4-1.41l-8.36-8.36,1.58-5.92,5.92-1.58,8.36,8.36c.37.37.9.52,1.41.4.51-.12.92-.49,1.09-.98,2.11-6.18.55-12.88-4.05-17.48l.02.02ZM76.59,34.31l1.43-2.96,5.68,5.68-2.96,1.43-2.58-2.58-1.57-1.57h0ZM88.96,22.9l3.19,3.19-6.1,9.01-6.1-6.1,9.01-6.1ZM74.76,36.76l.99.98,2.54,2.54-15.81,15.81-3.53-3.53,15.81-15.81h0ZM55.75,71.38l-2.02,2.02c-.21.21-.57.21-.79-.02-.81-.81-1.89-1.26-3.03-1.27-1.14,0-2.23.44-3.04,1.25s-1.25,1.89-1.25,3.04c0,1.14.46,2.22,1.27,3.03l.41.41-15.14,15.14c-3.36,3.36-8.8,3.48-12.12.27-1.68-1.62-2.62-3.79-2.64-6.11-.02-2.28.85-4.41,2.45-6.01l15.37-15.37.4.41c1.68,1.68,4.4,1.69,6.07.02,1.66-1.66,1.66-4.39-.02-6.07-.15-.15-.17-.32-.17-.41s.02-.25.16-.39l2.02-2.02,12.09,12.09h0ZM92.44,85.29l-7.08-7.08c-.38-.38-.94-.53-1.46-.39l-7.61,2.03c-.52.14-.93.55-1.07,1.07l-2.03,7.61c-.14.52.01,1.08.39,1.46l7.08,7.08c-4.33.65-8.72-.76-11.89-3.93-3.89-3.89-5.13-9.73-3.15-14.89.21-.56.08-1.19-.34-1.61l-26.88-26.88c-.29-.29-.68-.44-1.07-.44-.18,0-.37.03-.54.1-5.15,1.98-10.99.74-14.89-3.15-3.18-3.18-4.58-7.56-3.93-11.89l7.08,7.08c.38.38.94.53,1.46.39l7.61-2.03c.52-.14.93-.55,1.07-1.07l2.03-7.61c.14-.52-.01-1.08-.39-1.46l-7.08-7.08c4.33-.65,8.72.76,11.89,3.93,3.89,3.89,5.13,9.73,3.15,14.89-.21.56-.08,1.19.34,1.61l10.57,10.57s.02.03.04.05l5.67,5.66,10.6,10.6c.42.42,1.05.55,1.61.34,5.15-1.98,10.99-.74,14.89,3.15,3.18,3.18,4.58,7.56,3.93,11.89h0ZM41.22,73.83c.59.59.59,1.55,0,2.14l-12.95,12.95c-.3.3-.68.44-1.07.44s-.77-.15-1.07-.44c-.59-.59-.59-1.55,0-2.14l12.95-12.95c.59-.59,1.55-.59,2.14,0h0Z"/>
</svg>