<?xml version="1.0" encoding="UTF-8"?>
<svg id="Layer_1" xmlns="http://www.w3.org/2000/svg" version="1.1" viewBox="0 0 110 135">
  <!-- Generator: Adobe Illustrator 29.6.1, SVG Export Plug-In . SVG Version: 2.1.1 Build 9)  -->
  <defs>
    <style>
      .st0 {
        fill: #2dabe0;
      }
    </style>
  </defs>
  <path class="st0" d="M83.5,74.32h-.33c4.76-5.79,7.57-12.93,8.02-20.41.45-7.48-1.48-14.91-5.51-21.22-.01-.02-.03-.04-.04-.06h0c-3.36-5.23-8.02-9.5-13.52-12.37h0c-5.52-2.89-11.71-4.26-17.93-3.98-6.23.28-12.27,2.19-17.52,5.55h-.02s0,.01,0,.01c-10.22,6.52-16.41,17.79-16.42,29.91,0,.51.05,1.01.07,1.52h0c0,.05,0,.11,0,.16.33,7.64,3.14,14.98,8,20.89h-1.07c-.7,0-1.38.11-2.05.29-.09.02-.19.05-.27.09-3.43,1.02-5.78,4.16-5.79,7.73v13.21h0c0,4.48,3.64,8.11,8.11,8.11h56.27c4.48,0,8.11-3.63,8.11-8.11v-13.2c0-4.48-3.64-8.11-8.11-8.11h0ZM28.86,69.84l.79-2.96h0c.22-.82-.25-1.66-1.06-1.91-.81-.24-1.66.21-1.92,1.02-1.85-3.77-2.94-7.87-3.21-12.06l2.13-2.13c.6-.59.62-1.55.04-2.17-.58-.61-1.54-.65-2.17-.09.29-4.19,1.39-8.28,3.24-12.04l2.91-.78h0c.82-.22,1.32-1.05,1.11-1.88-.2-.82-1.02-1.34-1.85-1.15,2.35-3.48,5.35-6.47,8.83-8.82l2.93.79c.81.22,1.65-.24,1.89-1.04.25-.8-.19-1.65-.98-1.93,3.77-1.84,7.86-2.94,12.04-3.21l2.12,2.12c.59.6,1.55.62,2.16.05.61-.57.66-1.53.11-2.16,4.18.29,8.27,1.39,12.04,3.25l.77,2.89c.22.82,1.05,1.31,1.87,1.11.82-.2,1.34-1.02,1.16-1.84,3.48,2.35,6.47,5.34,8.81,8.82l-.79,2.92h0c-.22.81.23,1.65,1.04,1.9s1.66-.18,1.93-.98c1.85,3.77,2.94,7.86,3.21,12.04l-2.11,2.11c-.61.59-.63,1.55-.06,2.17.58.62,1.54.66,2.17.1-.28,4.18-1.38,8.27-3.23,12.03l-2.91.78c-.76.2-1.25.93-1.14,1.71.1.78.77,1.36,1.55,1.36.11,0,.23-.02.34-.04-1.09,1.6-2.32,3.1-3.68,4.49h-6.46c7.14-5.3,11.35-13.67,11.37-22.57,0-.86-.7-1.56-1.56-1.56s-1.56.7-1.56,1.56c0,4.73-1.36,9.36-3.89,13.35-2.53,3.99-6.14,7.19-10.41,9.22h-33.9c-1.36-1.38-2.59-2.88-3.68-4.48h0ZM25.04,77.98l2.95,3.45h0c.56.65,1.55.73,2.2.17.66-.56.73-1.54.17-2.2l-1.67-1.95h13.83l3.38,3.95c.56.66,1.55.73,2.2.17.66-.56.73-1.55.18-2.2l-1.64-1.92h13.82l3.34,3.9c.27.32.65.51,1.07.55.41.03.82-.1,1.14-.37.32-.27.51-.66.54-1.07.03-.41-.11-.82-.38-1.14l-1.6-1.87h13.83l3.31,3.87h0c.56.65,1.55.73,2.2.16.66-.56.73-1.54.17-2.2l-1.57-1.84h.99c2.75,0,4.98,2.23,4.99,4.99v1.71H22.25v-1.71c0-1.89,1.09-3.62,2.79-4.46h0ZM88.49,90.83H22.25v-3.56h66.24v3.56ZM83.5,100.63h-9.92l1.46-1.71h0c.56-.66.48-1.64-.18-2.2-.66-.56-1.64-.48-2.2.18l-3.2,3.74h-13.83l1.67-1.96h0c.56-.66.48-1.64-.18-2.2-.66-.56-1.64-.48-2.2.17l-3.41,3.99h-13.82l1.68-1.96c.27-.32.41-.72.38-1.14s-.23-.8-.54-1.07c-.31-.27-.72-.4-1.14-.37-.41.04-.8.23-1.07.55l-3.42,3.99h-6.36c-2.75,0-4.98-2.23-4.99-4.99v-1.68h66.24v1.68c0,2.75-2.23,4.98-4.99,4.99h0Z"/>
  <path class="st0" d="M41.57,68.02c3.86,3.28,8.75,5.07,13.81,5.07.61,0,1.22-.03,1.83-.08,1.82-.16,3.62-.54,5.34-1.16,2.43-.86,4.67-2.16,6.63-3.84,3.75-3.19,6.29-7.57,7.17-12.42h0s0-.01,0-.01c.47-2.53.47-5.12,0-7.65-.11-.6-.24-1.2-.4-1.79h0c-.96-3.55-2.83-6.78-5.42-9.39-.43-.44-.88-.86-1.36-1.25h0s0,0,0,0c-3.85-3.29-8.74-5.1-13.81-5.1-5.06,0-9.96,1.81-13.8,5.1-.47.4-.92.82-1.36,1.25h0c-3.03,3.04-5.05,6.94-5.82,11.16h0c-1.26,6.86.91,13.9,5.82,18.84.43.43.88.85,1.36,1.25h0ZM41,62.91c-.11-.14-.23-.29-.34-.44h0c-.37-.5-.72-1.03-1.04-1.57-.01-.02-.03-.05-.04-.07-.31-.55-.6-1.12-.85-1.7-.08-.18-.15-.35-.22-.53-.19-.46-.36-.94-.51-1.41-.03-.11-.07-.21-.1-.32h7.02c.33,0,.64.17.8.46.16.28.17.63,0,.91l-3.51,6.07c-.07-.07-.14-.15-.21-.23-.35-.38-.69-.78-1-1.18h0ZM37.16,51.76c0-.67.04-1.33.12-1.99h7.63c1.45,0,2.78-.77,3.5-2.02.73-1.25.73-2.79,0-4.05l-3.82-6.62c1.07-.79,2.22-1.46,3.44-2l3.82,6.64c.73,1.25,2.06,2.02,3.5,2.01,1.45,0,2.78-.77,3.5-2.02l3.82-6.62h0c1.21.54,2.37,1.21,3.44,2l-3.8,6.61h0c-.73,1.25-.73,2.8-.01,4.05s2.06,2.02,3.51,2.02h7.63c.16,1.32.16,2.66,0,3.98h-7.63c-1.45,0-2.78.77-3.5,2.02-.72,1.25-.72,2.79,0,4.04l3.81,6.62c-1.07.79-2.22,1.46-3.44,1.99l-3.82-6.62c-.73-1.25-2.06-2.02-3.51-2.02-1.45,0-2.78.77-3.5,2.02l-3.81,6.61c-1.22-.54-2.38-1.2-3.45-1.99l3.82-6.61h0c.72-1.26.71-2.8-.01-4.05s-2.06-2.02-3.5-2.02h-7.63c-.08-.66-.12-1.32-.12-1.99h0ZM38,46.35c.15-.49.32-.98.52-1.45.07-.17.14-.34.21-.51h0c.26-.59.55-1.16.86-1.72l.02-.03c.32-.55.67-1.08,1.05-1.59.11-.15.23-.3.34-.45.31-.4.64-.79.98-1.16.07-.08.15-.17.23-.25l3.51,6.07c.17.28.17.63,0,.91-.16.29-.47.46-.8.46h-7.01c.03-.1.06-.2.09-.29h0ZM68.75,39.43c.35.38.68.77,1,1.18.11.15.23.29.34.44h0c.37.5.72,1.03,1.04,1.57l.04.07h0c.31.55.59,1.11.85,1.69.08.18.15.36.22.54.19.46.35.93.5,1.4.04.11.07.22.11.33h-7.01c-.33,0-.64-.17-.8-.46-.16-.29-.16-.64.01-.91l3.5-6.07c.07.08.14.16.21.23h0ZM72.74,57.18c-.15.49-.32.96-.52,1.44-.07.17-.14.34-.21.5h0c-.26.59-.55,1.17-.87,1.73h0s0,0,0,0c-.32.56-.68,1.1-1.07,1.61-.11.14-.22.29-.33.43-.32.41-.66.81-1.01,1.19-.07.07-.14.16-.21.23l-3.5-6.08c-.17-.28-.17-.62,0-.91.16-.29.47-.46.8-.46h7.01c-.03.1-.07.2-.1.3h0ZM59.32,69.51c-.46.1-.93.19-1.41.25-.21.03-.43.06-.65.08-.55.06-1.11.09-1.67.1h-.45c-.55,0-1.1-.04-1.65-.1-.22-.02-.44-.05-.66-.09-.47-.07-.94-.15-1.41-.25-.12-.03-.24-.05-.36-.08l3.49-6.06h0c.17-.29.47-.46.8-.46.33,0,.64.17.8.46l3.51,6.07c-.12.03-.24.05-.36.08h0ZM55.38,33.54h0c1.45,0,2.89.18,4.3.52l-3.51,6.08c-.16.29-.47.46-.8.46-.33,0-.64-.17-.8-.46l-3.51-6.09h0c1.41-.34,2.86-.52,4.32-.52h0Z"/>
  <path class="st0" d="M55.38,56.88c2.07,0,3.93-1.25,4.73-3.16.79-1.91.36-4.11-1.11-5.57-1.46-1.46-3.66-1.9-5.57-1.11-1.91.79-3.16,2.66-3.16,4.73,0,2.82,2.29,5.11,5.11,5.11h0ZM55.38,49.77c.8,0,1.53.48,1.84,1.23.31.74.14,1.6-.43,2.17-.57.57-1.42.74-2.17.43-.74-.31-1.23-1.03-1.23-1.84,0-1.1.89-1.99,1.99-1.99h0Z"/>
  <path class="st0" d="M55.38,26.78c.86,0,1.56-.7,1.56-1.56s-.7-1.56-1.56-1.56c-7.45,0-14.59,2.97-19.86,8.24-5.27,5.27-8.23,12.41-8.24,19.86,0,.86.7,1.56,1.56,1.56s1.56-.7,1.56-1.56c0-6.62,2.64-12.97,7.32-17.66,4.68-4.68,11.03-7.32,17.65-7.32h0Z"/>
</svg>