<?xml version="1.0" encoding="UTF-8"?>
<svg id="Layer_1" xmlns="http://www.w3.org/2000/svg" version="1.1" viewBox="0 0 110 135">
  <!-- Generator: Adobe Illustrator 29.6.1, SVG Export Plug-In . SVG Version: 2.1.1 Build 9)  -->
  <defs>
    <style>
      .st0 {
        fill: #2dabe0;
      }
    </style>
  </defs>
  <path class="st0" d="M76.09,72.5h-3.12c-.86,0-1.56.7-1.56,1.56s.7,1.56,1.56,1.56h3.12c.86,0,1.56-.7,1.56-1.56s-.7-1.56-1.56-1.56Z"/>
  <path class="st0" d="M27.89,95.16c-.04-2.32-1-4.53-2.67-6.14-1.67-1.61-3.91-2.5-6.23-2.45-4.75,0-8.59,3.85-8.59,8.59s3.85,8.59,8.59,8.59c2.32.04,4.56-.84,6.23-2.45,1.67-1.61,2.63-3.82,2.67-6.14h0ZM13.2,95.16c.04-1.49.67-2.91,1.76-3.93,1.08-1.02,2.53-1.58,4.02-1.54,3.02,0,5.47,2.45,5.47,5.47s-2.45,5.47-5.47,5.47c-1.49.04-2.94-.51-4.02-1.54-1.09-1.03-1.72-2.44-1.76-3.93Z"/>
  <path class="st0" d="M85.62,86.56c-3.45.12-6.48,2.3-7.71,5.52-1.23,3.22-.42,6.86,2.06,9.26,2.48,2.39,6.15,3.07,9.32,1.73,3.18-1.35,5.23-4.46,5.24-7.91-.04-2.32-1-4.53-2.67-6.14-1.67-1.61-3.91-2.5-6.23-2.45h0ZM85.62,100.62c-2.18-.12-4.07-1.54-4.82-3.58-.75-2.05-.21-4.35,1.38-5.85,1.59-1.5,3.91-1.91,5.92-1.05,2,.86,3.3,2.83,3.31,5.02-.04,1.49-.67,2.91-1.76,3.93-1.08,1.02-2.53,1.58-4.02,1.54h0Z"/>
  <path class="st0" d="M23.2,95.16c.03-1.71-.98-3.27-2.55-3.95-1.57-.68-3.4-.34-4.62.86-1.22,1.2-1.6,3.02-.95,4.61.65,1.59,2.19,2.62,3.91,2.62,2.3,0,4.18-1.84,4.22-4.14h0ZM17.89,95.16c-.03-.45.21-.87.62-1.06.41-.2.89-.12,1.22.18.33.3.44.78.27,1.2-.16.42-.57.7-1.02.7-.29.02-.58-.07-.8-.27-.22-.19-.36-.46-.38-.75h.08Z"/>
  <path class="st0" d="M85.62,91.02c-1.67.03-3.15,1.06-3.77,2.61-.62,1.55-.24,3.32.95,4.48,1.19,1.17,2.96,1.51,4.5.86,1.54-.64,2.54-2.15,2.54-3.82-.04-2.3-1.92-4.14-4.22-4.14h0ZM85.62,96.09c-.4-.03-.75-.3-.88-.68-.14-.38-.03-.8.27-1.08.3-.27.73-.35,1.1-.19.37.16.61.53.61.93,0,.61-.49,1.09-1.09,1.09v-.08Z"/>
  <path class="st0" d="M17.01,62.42h25c.65,0,1.22-.41,1.45-1.02.23-.61.05-1.29-.43-1.71l-4.84-4.38-1.09-1.02c-.7-.77-1.69-1.22-2.73-1.25h-12.27c-1.64.05-3.11,1.06-3.75,2.58l-2.66,4.45c-.28.48-.28,1.07,0,1.55.27.48.78.79,1.34.79h0ZM35.9,55.93l1.4,1.31,2.15,2.06h-9.17v-3.74h4.86c.29,0,.57.14.75.37h0ZM20.01,56.73v-.18c.15-.5.58-.86,1.1-.92h6.06v3.67h-8.72l1.56-2.57Z"/>
  <path class="st0" d="M54.06,64.45c0,1.77-2.5,1.77-2.5,0s2.5-1.77,2.5,0"/>
  <path class="st0" d="M101.48,81.56h-.47v-1.72c.04-.1.06-.21.08-.31v-4.69c0-.13-.04-.27-.08-.39v-1.17c.02-2.24-1.3-4.27-3.36-5.16l-5.39-2.34c-.24-.21-.54-.35-.86-.39l-1.72-.7-6.88-6.48c-2.51-2.32-5.8-3.63-9.22-3.67h-6.88v-13.05c.02-.44-.16-.86-.47-1.17l-24.38-23.59c-.61-.59-1.58-.59-2.19,0l-3.28,3.36c-.52.57-.55,1.43-.08,2.03v6.8c-3.18.66-5.46,3.47-5.47,6.72,0,3.88,3.15,7.03,7.03,7.03s7.03-3.15,7.03-7.03c0-.86-.7-1.56-1.56-1.56s-1.56.7-1.56,1.56c0,2.16-1.75,3.91-3.91,3.91s-3.91-1.75-3.91-3.91c.04-1.79,1.3-3.31,3.05-3.67,1.39-.36,2.35-1.61,2.34-3.05v-3.75l19.53,19.06v32.97h-12.58c1.98-1.11,3.21-3.2,3.2-5.47h4.38c2.24-.12,3.99-1.98,3.98-4.22v-4.06c.16-2.89-4.53-4.3-7.42-4.84h-.16l-8.28-7.03-.62-.62c-1.86-1.75-4.32-2.7-6.88-2.66h-12.03c-3.59,0-6.9,1.99-8.59,5.16l-4.69,6.56h-1.02c-1.77,0-3.2,1.43-3.2,3.2v2.58c0,3.15,2.48,5.73,5.62,5.86h2.19c.01,2.29,1.27,4.38,3.28,5.47H6.56c-.86,0-1.56.7-1.56,1.56v12.5c0,.41.16.81.46,1.11.29.29.69.46,1.11.46h.62c.23-1.09.63-2.14,1.17-3.12h-.23v-9.3h50.78v9.38h-29.3c.54.98.94,2.03,1.17,3.12h43.05c.23-1.09.63-2.14,1.17-3.12h-8.28v-32.03h4.69v9.38c0,.41.16.81.46,1.11s.69.46,1.11.46h17.73l5.7,2.5c.88.37,1.46,1.23,1.48,2.19h-2.42c-2.98,0-5.39,2.41-5.39,5.39v.86c0,.41.16.81.46,1.11.29.29.69.46,1.11.46h6.17v1.95c0,.41.16.81.46,1.11.29.29.69.46,1.11.46h1.95c.26,0,.47.21.47.47v4.06c0,.26-.21.47-.47.47h-5.16c.54.98.94,2.03,1.17,3.12h4.06c1.95-.04,3.52-1.64,3.52-3.59v-4.06c-.04-1.89-1.54-3.43-3.44-3.52h0ZM43.28,74.92c-1.27,0-2.4-.76-2.89-1.93-.48-1.17-.21-2.51.68-3.41.89-.89,2.24-1.16,3.41-.68,1.17.48,1.93,1.62,1.93,2.89,0,.83-.33,1.62-.91,2.21-.59.59-1.38.91-2.21.91h0ZM10.63,68.52c-1.14-.06-2.12-.85-2.42-1.95h.31c.86,0,1.56-.7,1.56-1.56s-.7-1.56-1.56-1.56h-.39v-.23h1.95c.51-.02.97-.28,1.25-.7l5.16-7.42v-.16c1.18-2.21,3.51-3.57,6.02-3.52h12.03c1.72,0,3.38.68,4.61,1.88l.16.16.7.62,8.2,6.72c.48.47,1.12.75,1.8.78,2.03.47,4.3,1.25,4.77,1.8v3.98c0,.55-.47,1.09-.86,1.09h-5.23c-1.13-1.88-3.16-3.02-5.35-3.02s-4.22,1.15-5.35,3.02h-7.27v-4.06c0-.86-.7-1.56-1.56-1.56s-1.56.7-1.56,1.56v4.22h-3.12c-1.12-1.91-3.17-3.09-5.39-3.09s-4.27,1.17-5.39,3.09l-3.05-.08ZM19.06,68.59c1.27,0,2.4.76,2.89,1.93.48,1.17.21,2.51-.68,3.41-.89.89-2.24,1.16-3.41.68-1.17-.48-1.93-1.62-1.93-2.89,0-1.73,1.4-3.12,3.12-3.12h0ZM25.31,71.72h11.72c0,2.27,1.22,4.36,3.2,5.47h-18.2c2.01-1.09,3.27-3.18,3.28-5.47h0ZM63.59,44.53v12.58c-.09.2-.15.41-.16.62v31.64h-1.41v-43.67l.23-.16,1.33-1.02ZM40.78,20l21.95,21.17-1.41,1.09-21.64-21.09,1.09-1.17ZM85.86,65.47h-11.33v-7.73c2.31.24,4.48,1.23,6.17,2.81l5.16,4.92ZM93.36,77.97c.3-.92,1.14-1.54,2.11-1.56h2.42v1.56h-4.53Z"/>
</svg>